<mxfile host="app.diagrams.net" modified="2024-06-17T04:29:53.512Z" agent="Mozilla/5.0 (Macintosh; Intel Mac OS X 10_15_7) AppleWebKit/605.1.15 (KHTML, like Gecko) Version/17.5 Safari/605.1.15" etag="WRzgshx0bATkl25SxIvU" version="24.5.4" type="device">
  <diagram name="Page-1" id="JR2kuJdq1zbRZiOPOg9G">
    <mxGraphModel dx="3088" dy="1996" grid="1" gridSize="10" guides="1" tooltips="1" connect="1" arrows="1" fold="1" page="1" pageScale="1" pageWidth="827" pageHeight="1169" math="0" shadow="0">
      <root>
        <mxCell id="0" />
        <mxCell id="1" parent="0" />
        <mxCell id="3Fzgw3bwLbgeH6Izsh_8-56" value="" style="rounded=0;whiteSpace=wrap;html=1;" vertex="1" parent="1">
          <mxGeometry x="-870" y="-290" width="920" height="790" as="geometry" />
        </mxCell>
        <mxCell id="3Fzgw3bwLbgeH6Izsh_8-53" value="" style="rounded=0;whiteSpace=wrap;html=1;fillColor=#f5f5f5;fontColor=#333333;strokeColor=#666666;" vertex="1" parent="1">
          <mxGeometry x="-830" y="-260" width="840" height="670" as="geometry" />
        </mxCell>
        <mxCell id="3Fzgw3bwLbgeH6Izsh_8-52" value="" style="rounded=0;whiteSpace=wrap;html=1;fillColor=#E6E6E6;" vertex="1" parent="1">
          <mxGeometry x="-730" y="-100" width="640" height="450" as="geometry" />
        </mxCell>
        <mxCell id="3Fzgw3bwLbgeH6Izsh_8-38" value="" style="rounded=0;whiteSpace=wrap;html=1;dashed=1;fillColor=#CCE5FF;fontColor=#333333;strokeColor=#666666;" vertex="1" parent="1">
          <mxGeometry x="-370" width="260" height="320" as="geometry" />
        </mxCell>
        <mxCell id="3Fzgw3bwLbgeH6Izsh_8-37" value="" style="rounded=0;whiteSpace=wrap;html=1;dashed=1;fillColor=#CCE5FF;fontColor=#333333;strokeColor=#666666;" vertex="1" parent="1">
          <mxGeometry x="-720" width="260" height="320" as="geometry" />
        </mxCell>
        <mxCell id="3Fzgw3bwLbgeH6Izsh_8-2" value="Core 0" style="rounded=1;whiteSpace=wrap;html=1;fillColor=#3399FF;strokeColor=#10739e;glass=1;" vertex="1" parent="1">
          <mxGeometry x="-680" y="120" width="60" height="50" as="geometry" />
        </mxCell>
        <mxCell id="3Fzgw3bwLbgeH6Izsh_8-3" value="&lt;font color=&quot;#1a1a1a&quot;&gt;L3 Cache&lt;/font&gt;" style="rounded=1;whiteSpace=wrap;html=1;fillColor=#00FFFF;strokeColor=#009999;fontColor=#ffffff;" vertex="1" parent="1">
          <mxGeometry x="-720" y="-70" width="620" height="40" as="geometry" />
        </mxCell>
        <mxCell id="3Fzgw3bwLbgeH6Izsh_8-12" value="L1 Cache" style="rounded=1;whiteSpace=wrap;html=1;fillColor=#00FFFF;strokeColor=#009999;fontColor=#1A1A1A;gradientColor=none;fillStyle=solid;" vertex="1" parent="1">
          <mxGeometry x="-680" y="90" width="60" height="20" as="geometry" />
        </mxCell>
        <mxCell id="3Fzgw3bwLbgeH6Izsh_8-21" value="Core 2" style="rounded=1;whiteSpace=wrap;html=1;fillColor=#3399FF;strokeColor=#10739e;glass=1;" vertex="1" parent="1">
          <mxGeometry x="-680" y="250" width="60" height="50" as="geometry" />
        </mxCell>
        <mxCell id="3Fzgw3bwLbgeH6Izsh_8-22" value="L1 Cache" style="rounded=1;whiteSpace=wrap;html=1;fillColor=#00FFFF;strokeColor=#009999;fontColor=#1A1A1A;gradientColor=none;fillStyle=solid;" vertex="1" parent="1">
          <mxGeometry x="-680" y="220" width="60" height="20" as="geometry" />
        </mxCell>
        <mxCell id="3Fzgw3bwLbgeH6Izsh_8-23" value="Core 1" style="rounded=1;whiteSpace=wrap;html=1;fillColor=#3399FF;strokeColor=#10739e;glass=1;" vertex="1" parent="1">
          <mxGeometry x="-560" y="120" width="60" height="50" as="geometry" />
        </mxCell>
        <mxCell id="3Fzgw3bwLbgeH6Izsh_8-25" value="Core 3" style="rounded=1;whiteSpace=wrap;html=1;fillColor=#3399FF;strokeColor=#10739e;glass=1;" vertex="1" parent="1">
          <mxGeometry x="-560" y="250" width="60" height="50" as="geometry" />
        </mxCell>
        <mxCell id="3Fzgw3bwLbgeH6Izsh_8-26" value="L1 Cache" style="rounded=1;whiteSpace=wrap;html=1;fillColor=#00FFFF;strokeColor=#009999;fontColor=#1A1A1A;gradientColor=none;fillStyle=solid;" vertex="1" parent="1">
          <mxGeometry x="-560" y="220" width="60" height="20" as="geometry" />
        </mxCell>
        <mxCell id="3Fzgw3bwLbgeH6Izsh_8-27" value="Core 4" style="rounded=1;whiteSpace=wrap;html=1;fillColor=#3399FF;strokeColor=#10739e;glass=1;" vertex="1" parent="1">
          <mxGeometry x="-340" y="120" width="60" height="50" as="geometry" />
        </mxCell>
        <mxCell id="3Fzgw3bwLbgeH6Izsh_8-28" value="L1 Cache" style="rounded=1;whiteSpace=wrap;html=1;fillColor=#00FFFF;strokeColor=#009999;fontColor=#1A1A1A;gradientColor=none;fillStyle=solid;" vertex="1" parent="1">
          <mxGeometry x="-340" y="90" width="60" height="20" as="geometry" />
        </mxCell>
        <mxCell id="3Fzgw3bwLbgeH6Izsh_8-29" value="Core 6" style="rounded=1;whiteSpace=wrap;html=1;fillColor=#3399FF;strokeColor=#10739e;glass=1;" vertex="1" parent="1">
          <mxGeometry x="-340" y="250" width="60" height="50" as="geometry" />
        </mxCell>
        <mxCell id="3Fzgw3bwLbgeH6Izsh_8-30" value="L1 Cache" style="rounded=1;whiteSpace=wrap;html=1;fillColor=#00FFFF;strokeColor=#009999;fontColor=#1A1A1A;gradientColor=none;fillStyle=solid;" vertex="1" parent="1">
          <mxGeometry x="-340" y="220" width="60" height="20" as="geometry" />
        </mxCell>
        <mxCell id="3Fzgw3bwLbgeH6Izsh_8-31" value="Core 5" style="rounded=1;whiteSpace=wrap;html=1;fillColor=#3399FF;strokeColor=#10739e;glass=1;" vertex="1" parent="1">
          <mxGeometry x="-220" y="120" width="60" height="50" as="geometry" />
        </mxCell>
        <mxCell id="3Fzgw3bwLbgeH6Izsh_8-32" value="L1 Cache" style="rounded=1;whiteSpace=wrap;html=1;fillColor=#00FFFF;strokeColor=#009999;fontColor=#1A1A1A;gradientColor=none;fillStyle=solid;" vertex="1" parent="1">
          <mxGeometry x="-220" y="90" width="60" height="20" as="geometry" />
        </mxCell>
        <mxCell id="3Fzgw3bwLbgeH6Izsh_8-33" value="Core 7" style="rounded=1;whiteSpace=wrap;html=1;fillColor=#3399FF;strokeColor=#10739e;glass=1;" vertex="1" parent="1">
          <mxGeometry x="-220" y="250" width="60" height="50" as="geometry" />
        </mxCell>
        <mxCell id="3Fzgw3bwLbgeH6Izsh_8-34" value="L1 Cache" style="rounded=1;whiteSpace=wrap;html=1;fillColor=#00FFFF;strokeColor=#009999;fontColor=#1A1A1A;gradientColor=none;fillStyle=solid;" vertex="1" parent="1">
          <mxGeometry x="-220" y="220" width="60" height="20" as="geometry" />
        </mxCell>
        <mxCell id="3Fzgw3bwLbgeH6Izsh_8-36" value="L1 Cache" style="rounded=1;whiteSpace=wrap;html=1;fillColor=#00FFFF;strokeColor=#009999;fontColor=#1A1A1A;gradientColor=none;fillStyle=solid;" vertex="1" parent="1">
          <mxGeometry x="-560" y="90" width="60" height="20" as="geometry" />
        </mxCell>
        <mxCell id="3Fzgw3bwLbgeH6Izsh_8-41" value="Memory" style="rounded=1;whiteSpace=wrap;html=1;fillColor=#dae8fc;strokeColor=#6c8ebf;" vertex="1" parent="1">
          <mxGeometry x="-720" y="-230" width="620" height="100" as="geometry" />
        </mxCell>
        <mxCell id="3Fzgw3bwLbgeH6Izsh_8-43" value="" style="rounded=1;whiteSpace=wrap;html=1;fontColor=#99FF99;fillColor=#CCFFCC;rotation=90;" vertex="1" parent="1">
          <mxGeometry x="-860" y="100" width="170" height="60" as="geometry" />
        </mxCell>
        <mxCell id="3Fzgw3bwLbgeH6Izsh_8-44" value="" style="rounded=1;whiteSpace=wrap;html=1;fontColor=#99FF99;fillColor=#CCFFCC;rotation=90;" vertex="1" parent="1">
          <mxGeometry x="-130" y="110" width="170" height="60" as="geometry" />
        </mxCell>
        <mxCell id="3Fzgw3bwLbgeH6Izsh_8-45" value="GPU 0" style="text;html=1;align=center;verticalAlign=middle;whiteSpace=wrap;rounded=1;" vertex="1" parent="1">
          <mxGeometry x="-805" y="115" width="60" height="30" as="geometry" />
        </mxCell>
        <mxCell id="3Fzgw3bwLbgeH6Izsh_8-46" value="GPU 1" style="text;html=1;align=center;verticalAlign=middle;whiteSpace=wrap;rounded=0;" vertex="1" parent="1">
          <mxGeometry x="-75" y="120" width="60" height="30" as="geometry" />
        </mxCell>
        <mxCell id="3Fzgw3bwLbgeH6Izsh_8-49" value="&lt;font color=&quot;#1a1a1a&quot;&gt;L2 Cache&lt;/font&gt;" style="rounded=1;whiteSpace=wrap;html=1;fillColor=#00FFFF;strokeColor=#009999;fontColor=#ffffff;" vertex="1" parent="1">
          <mxGeometry x="-680" y="20" width="173" height="40" as="geometry" />
        </mxCell>
        <mxCell id="3Fzgw3bwLbgeH6Izsh_8-50" value="&lt;font color=&quot;#1a1a1a&quot;&gt;L2 Cache&lt;/font&gt;" style="rounded=1;whiteSpace=wrap;html=1;fillColor=#00FFFF;strokeColor=#009999;fontColor=#ffffff;" vertex="1" parent="1">
          <mxGeometry x="-333" y="20" width="173" height="40" as="geometry" />
        </mxCell>
        <mxCell id="3Fzgw3bwLbgeH6Izsh_8-51" value="Network&amp;nbsp;" style="rounded=1;whiteSpace=wrap;html=1;fillColor=#fff2cc;strokeColor=#d6b656;" vertex="1" parent="1">
          <mxGeometry x="-746" y="440" width="640" height="30" as="geometry" />
        </mxCell>
        <mxCell id="3Fzgw3bwLbgeH6Izsh_8-55" value="" style="shape=link;html=1;rounded=0;entryX=0.514;entryY=-0.067;entryDx=0;entryDy=0;exitX=0.492;exitY=1.001;exitDx=0;exitDy=0;exitPerimeter=0;entryPerimeter=0;" edge="1" parent="1" source="3Fzgw3bwLbgeH6Izsh_8-53" target="3Fzgw3bwLbgeH6Izsh_8-51">
          <mxGeometry width="100" relative="1" as="geometry">
            <mxPoint x="-413" y="430" as="sourcePoint" />
            <mxPoint x="-313" y="430" as="targetPoint" />
          </mxGeometry>
        </mxCell>
      </root>
    </mxGraphModel>
  </diagram>
</mxfile>
